<svg width="172" height="172" viewBox="0 0 172 172" fill="none" xmlns="http://www.w3.org/2000/svg">
<circle cx="86" cy="86" r="86" fill="#FFEFEF"/>
<circle cx="85.9996" cy="86.6641" r="55.4517" fill="#FFCFD3"/>
<path d="M65.3906 66.0549C53.8558 77.5898 53.8558 96.3131 65.3906 107.848C76.9255 119.383 95.6488 119.383 107.184 107.848C118.719 96.3131 118.719 77.5898 107.184 66.0549C95.6488 54.52 76.9255 54.52 65.3906 66.0549ZM98.8251 78.5928L90.4665 86.9514L98.8251 95.31L94.6458 99.4893L86.2872 91.1307L77.9286 99.4893L73.7492 95.31L82.1079 86.9514L73.7492 78.5928L77.9286 74.4135L86.2872 82.7721L94.6458 74.4135L98.8251 78.5928Z" fill="#F23E4C"/>
</svg>
