<svg width="24" height="24" viewBox="0 0 24 24" fill="none" xmlns="http://www.w3.org/2000/svg">
<path d="M17.1363 15.5148L14.7529 13.1013C14.8761 12.9017 14.9715 12.6678 15.0393 12.3997C15.107 12.1315 15.1409 11.8602 15.1409 11.5858C15.1409 10.7002 14.836 9.94871 14.2263 9.33129C13.6166 8.71387 12.8745 8.40516 12 8.40516C11.729 8.40516 11.4642 8.43634 11.2055 8.49871C10.9469 8.56108 10.7129 8.66086 10.5035 8.79806L8.47113 6.72129C8.90223 6.52172 9.45343 6.3471 10.1247 6.19742C10.796 6.04774 11.4519 5.9729 12.0924 5.9729C13.7552 5.9729 15.2887 6.43441 16.6928 7.35742C18.097 8.28043 19.1686 9.52151 19.9076 11.0806C19.9446 11.143 19.9692 11.2178 19.9815 11.3052C19.9938 11.3925 20 11.486 20 11.5858C20 11.6856 19.9938 11.7823 19.9815 11.8758C19.9692 11.9694 19.9446 12.0473 19.9076 12.1097C19.5874 12.7957 19.1932 13.4256 18.7252 13.9994C18.2571 14.5731 17.7275 15.0783 17.1363 15.5148ZM17.8014 19.3316L15.1039 16.6561C14.6728 16.8308 14.1863 16.9648 13.6443 17.0584C13.1024 17.1519 12.5543 17.1987 12 17.1987C10.3002 17.1987 8.74211 16.7372 7.32564 15.8142C5.90916 14.8912 4.83141 13.6501 4.09238 12.091C4.05543 12.0161 4.03079 11.9382 4.01848 11.8571C4.00616 11.776 4 11.6856 4 11.5858C4 11.486 4.00924 11.3894 4.02771 11.2958C4.04619 11.2023 4.06774 11.1243 4.09238 11.0619C4.35104 10.5006 4.68052 9.95495 5.08083 9.42484C5.48114 8.89473 5.95227 8.39269 6.49423 7.91871L4.55427 5.95419C4.44342 5.84194 4.38799 5.71097 4.38799 5.56129C4.38799 5.41161 4.44342 5.28065 4.55427 5.16839C4.66513 5.05613 4.79754 5 4.9515 5C5.10547 5 5.23788 5.05613 5.34873 5.16839L18.5774 18.5645C18.6759 18.6643 18.7252 18.7859 18.7252 18.9294C18.7252 19.0728 18.6759 19.2006 18.5774 19.3129C18.4788 19.4376 18.3526 19.5 18.1986 19.5C18.0446 19.5 17.9122 19.4439 17.8014 19.3316ZM12 14.7665C12.1724 14.7665 12.3572 14.7509 12.5543 14.7197C12.7513 14.6885 12.9176 14.6417 13.0531 14.5794L9.04388 10.5194C8.98229 10.669 8.9361 10.8374 8.90531 11.0245C8.87452 11.2116 8.85912 11.3987 8.85912 11.5858C8.85912 12.4839 9.16705 13.2385 9.78291 13.8497C10.3988 14.4609 11.1378 14.7665 12 14.7665ZM13.94 12.2781L11.3164 9.62129C12.0801 9.33441 12.7883 9.48409 13.4411 10.0703C14.0939 10.6566 14.2602 11.3925 13.94 12.2781Z" fill="#B4B4B4"/>
</svg>
