<svg width="169" height="30" viewBox="0 0 169 30" fill="none" xmlns="http://www.w3.org/2000/svg">
<g clip-path="url(#clip0_425_2284)">
<path d="M76.8548 13.3625V8.10345H72.9416V13.3625H68.8225V0.330566H72.9416V4.96122H76.8548V0.330566H80.974V13.3625H76.8548Z" fill="#004098"/>
<path d="M92.5489 13.3625L91.8651 11.2291H87.5812L86.8315 13.3625H82.7124L87.8201 0.330566H91.8651L96.9069 13.3625H92.5489ZM89.9621 5.35813C89.8797 5.11006 89.8467 4.87853 89.7891 4.63873C89.7396 4.83718 89.682 5.03564 89.6078 5.2589L88.3721 8.92208H91.0907L89.9621 5.35813Z" fill="#004098"/>
<path d="M108.745 13.3625L102.649 6.94578V13.3625H98.604V0.330566H101.899L107.477 6.46618V0.330566H111.522V13.3625H108.745Z" fill="#004098"/>
<path d="M117.148 8.08706C116.706 7.91336 116.281 7.69737 115.88 7.44207C115.327 7.11615 114.871 6.64903 114.557 6.08833C114.243 5.52763 114.082 4.89339 114.092 4.25023C114.089 3.19325 114.5 2.17752 115.237 1.42223C115.753 0.936467 116.361 0.560129 117.025 0.315744C117.688 0.0713594 118.395 -0.036047 119.101 -4.43449e-05C120.331 0.00824566 121.544 0.290683 122.652 0.826858V4.04351C122.462 3.89466 122.281 3.74582 122.091 3.61352C121.353 3.13429 120.498 2.86823 119.62 2.8445C119.406 2.8406 119.193 2.86563 118.985 2.91892C118.752 2.97292 118.544 3.10436 118.395 3.29196C118.245 3.47955 118.163 3.71231 118.162 3.95255C118.162 4.72983 118.985 4.98617 119.579 5.20944L120.575 5.61462C121.142 5.80941 121.661 6.12438 122.096 6.53815C122.531 6.95192 122.872 7.4548 123.096 8.01263C123.25 8.45414 123.33 8.91776 123.335 9.38529C123.329 10.0871 123.145 10.7758 122.8 11.3864C121.564 13.6273 118.878 13.7017 118.236 13.7017C117.171 13.6787 116.113 13.5175 115.089 13.2221C114.759 13.1229 114.446 12.9989 114.117 12.8665V9.46798C114.278 9.60924 114.448 9.7391 114.627 9.85663C115.545 10.4109 116.582 10.7344 117.651 10.7993C117.766 10.7993 118.738 10.7993 119.101 10.1378C119.178 9.98406 119.218 9.8139 119.216 9.64163C119.22 9.49477 119.195 9.34856 119.142 9.21164C118.92 8.7155 118.318 8.53358 117.873 8.38474L117.148 8.08706Z" fill="#004098"/>
<path d="M137.95 8.04556C137.95 10.1376 137.513 11.1547 136.846 11.9237C135.89 12.9253 134.585 13.5178 133.205 13.5775C132.676 13.6629 132.142 13.7016 131.607 13.6933C130.075 13.7388 128.563 13.3428 127.248 12.5522C126.616 12.1111 126.119 11.5009 125.815 10.7909C125.523 10.0516 125.378 9.26239 125.387 8.46728V0.330566H129.506V7.49154C129.459 8.14488 129.52 8.80146 129.687 9.43476C129.831 9.85381 130.112 10.2117 130.485 10.4503C130.857 10.6889 131.299 10.7944 131.738 10.7495C132.186 10.7908 132.634 10.6703 133.001 10.4095C133.368 10.1487 133.63 9.76491 133.74 9.32726C133.83 8.96793 133.866 8.59736 133.847 8.22748V0.330566H137.966L137.95 8.04556Z" fill="#004098"/>
<path d="M150.629 13.3625L144.541 6.94578V13.3625H140.487V0.330566H143.824L149.393 6.46618V0.330566H153.438V13.3625H150.629Z" fill="#004098"/>
<path d="M167.995 4.07663L167.748 3.91125C167.602 3.81607 167.451 3.73045 167.295 3.65491C166.369 3.16615 165.341 2.90539 164.296 2.89416C163.571 2.9 162.853 3.04016 162.179 3.30761C161.848 3.42954 161.541 3.60866 161.272 3.83683C160.804 4.19861 160.429 4.66701 160.177 5.20333C159.924 5.73964 159.803 6.32847 159.823 6.92117C159.82 7.48526 159.918 8.04528 160.111 8.57497C160.391 9.29955 160.891 9.91754 161.54 10.3418C162.189 10.7661 162.954 10.9753 163.727 10.9399C164.232 10.9497 164.734 10.8684 165.21 10.7001V8.63286H162.376L163.868 5.87927H169.016V12.4035C167.155 13.222 165.15 13.6632 163.118 13.7018C162.195 13.7018 158.175 13.6025 156.379 10.2453C155.862 9.22083 155.599 8.0861 155.613 6.93771C155.591 5.97411 155.779 5.01739 156.165 4.13451C156.989 2.3484 159.032 0 163.579 0C164.78 0.0154218 165.975 0.156763 167.146 0.42172C167.426 0.479603 167.698 0.570562 167.97 0.644984L167.995 4.07663Z" fill="#004098"/>
<path d="M78.1648 25.6342C78.2169 26.523 77.9954 27.4063 77.5305 28.1645C76.3689 29.9341 74.0951 30.0002 73.5596 30.0002C72.4003 30.0218 71.2678 29.6488 70.3467 28.9418C69.9431 28.6249 69.6234 28.2131 69.4158 27.7428C69.1251 27.0071 68.9932 26.218 69.0286 25.4275V18.5476H70.5032V24.8073C70.4904 25.3594 70.5124 25.9118 70.5691 26.4611C70.6058 26.829 70.724 27.1841 70.915 27.5002C71.106 27.8164 71.365 28.0858 71.6731 28.2885C72.37 28.7471 73.2081 28.9385 74.0341 28.8276C74.8601 28.7168 75.6187 28.3111 76.1712 27.6849C76.6517 26.8078 76.8421 25.8001 76.7149 24.8073V18.4897L78.1648 18.5476V25.6342Z" fill="#004098"/>
<path d="M83.3713 20.5319L83.4454 29.7105H82.012V18.5474H83.569L90.3573 26.3616L90.2255 18.5474H91.659V29.9007L83.3713 20.5319Z" fill="#004098"/>
<path d="M95.564 29.7105V18.5474H96.9974V29.7105H95.564Z" fill="#004098"/>
<path d="M104.231 29.7105L99.8562 18.5474H101.454L105.005 28.065L108.671 18.5474H110.047L105.631 29.7105H104.231Z" fill="#004098"/>
<path d="M112.865 29.7105V18.5474H119.093V19.6471H114.306V23.2607H118.475V24.3936H114.306V28.5777H119.768L119.093 29.7105H112.865Z" fill="#004098"/>
<path d="M129.028 29.7107L126.046 24.8071C125.529 24.8681 125.009 24.8957 124.489 24.8898H124.011V29.7437H122.561V18.5475H125.56C126.072 18.5197 126.586 18.5699 127.084 18.6963C127.727 18.8422 128.299 19.2085 128.702 19.7322C129.105 20.2559 129.313 20.9043 129.291 21.5657C129.29 22.1604 129.118 22.7422 128.797 23.242C128.476 23.7418 128.018 24.1386 127.479 24.3854L130.774 29.7107H129.028ZM124.695 23.6825C124.933 23.6825 126.433 23.9058 127.248 22.9549C127.574 22.5902 127.745 22.1128 127.726 21.6236C127.733 21.2085 127.612 20.8015 127.38 20.4576C126.795 19.6307 125.848 19.6307 124.966 19.6307H123.97V24.6666L124.695 23.6825Z" fill="#004098"/>
<path d="M135.767 24.3938L135.165 24.1127C134.611 23.8776 134.135 23.4908 133.789 22.9966C133.444 22.5023 133.244 21.9205 133.213 21.3177C133.208 20.809 133.342 20.3086 133.6 19.8706C133.959 19.3318 134.452 18.896 135.03 18.606C135.607 18.3161 136.25 18.1819 136.895 18.2168C137.771 18.2245 138.637 18.4072 139.441 18.7543V20.2593C138.723 19.6632 137.819 19.3384 136.887 19.3414C136.524 19.3268 136.163 19.3994 135.833 19.5533C135.503 19.7072 135.215 19.9379 134.992 20.2262C134.803 20.4944 134.702 20.8154 134.704 21.1441C134.704 22.3431 135.841 22.864 136.755 23.2444L137.513 23.5669C138.476 23.9016 139.277 24.59 139.754 25.4936C139.948 25.8694 140.049 26.286 140.051 26.7091C140.051 27.3749 139.84 28.0235 139.449 28.5614C139.026 29.0437 138.499 29.4236 137.908 29.6727C137.318 29.9219 136.678 30.0338 136.039 30.0002C135.046 29.9854 134.067 29.7746 133.155 29.38V27.8585C133.312 27.9743 133.485 28.0818 133.65 28.181C134.374 28.5961 135.188 28.8287 136.022 28.8591C136.432 28.875 136.839 28.7926 137.21 28.6185C137.581 28.4445 137.905 28.1839 138.156 27.8585C138.357 27.5423 138.466 27.1754 138.469 26.8001C138.467 26.4221 138.352 26.0533 138.139 25.7417C137.691 25.2553 137.123 24.896 136.492 24.6998L135.767 24.3938Z" fill="#004098"/>
<path d="M143.428 29.7105V18.5474H144.862V29.7105H143.428Z" fill="#004098"/>
<path d="M151.246 29.7105V19.6637H147.696V18.5474H156.247V19.6637H152.68V29.7105H151.246Z" fill="#004098"/>
<path d="M162.203 29.7105V25.4106L157.994 18.5474H159.641L163.019 24.129L166.364 18.5474H167.863L163.678 25.4106V29.7105H162.203Z" fill="#004098"/>
<path d="M29.2871 18.4483L27.8701 17.8198C26.9572 17.4281 26.0898 16.9373 25.2833 16.3562C25.1093 16.2353 24.9415 16.1056 24.7807 15.9675C23.7744 15.1442 22.9691 14.1006 22.4265 12.9167C21.8839 11.7329 21.6184 10.4401 21.6502 9.13734C21.6312 6.79269 22.4562 4.51999 23.9734 2.73712C24.2283 2.44244 24.5036 2.16613 24.7972 1.91021C25.5517 1.23192 26.4189 0.691757 27.3593 0.314294H24.7807H16.3612V10.8077H8.38657V0.272949H0V29.7685H8.38657V17.8612H16.3612V29.7685H21.609L21.6502 22.3926C21.9797 22.7072 22.3291 23 22.6964 23.2691C23.3391 23.6808 24.0425 23.9878 24.7807 24.1787C26.0337 24.5468 27.3619 24.5725 28.628 24.2531C28.8504 24.1952 30.8935 23.79 31.7997 22.467C31.9588 22.1115 32.0322 21.7234 32.0139 21.3341C32.0207 21.0088 31.9734 20.6846 31.8739 20.3749C31.4208 19.2503 30.2262 18.8286 29.2871 18.4483Z" fill="#004098"/>
<path d="M54.2408 0.322266V17.2489C54.2766 18.0821 54.2018 18.9163 54.0184 19.7297C53.8773 20.3683 53.5958 20.9672 53.1946 21.4827C52.8178 21.9782 52.3233 22.3711 51.7563 22.6253C51.1893 22.8795 50.5678 22.9871 49.9487 22.938C49.0195 23.0174 48.0918 22.7694 47.3251 22.2367C46.5583 21.704 46.0004 20.9199 45.7472 20.0191C45.4012 18.583 45.2762 17.1022 45.3764 15.6282V0.322266H39.0577V8.03726C38.7199 7.69823 38.308 7.36747 37.8961 7.06978C37.3438 6.69838 36.7456 6.40093 36.1166 6.185C35.0121 5.76234 33.8193 5.62584 32.6483 5.78809C32.269 5.87062 31.8971 5.984 31.5361 6.12712C31.0379 6.27459 30.6022 6.58318 30.2968 7.00489C29.9914 7.4266 29.8333 7.9378 29.8473 8.45898C29.8473 10.2203 31.5691 10.8074 32.7307 11.3035L34.7573 12.2214C35.2351 12.4612 35.7047 12.7175 36.1496 12.9904C37.924 14.0298 39.2532 15.6908 39.8815 17.6541C40.1927 18.6586 40.3564 19.7032 40.3676 20.755C40.353 22.2238 40.0273 23.6726 39.4119 25.0053L38.8352 26.0968C37.8048 27.7478 36.2661 29.0164 34.4525 29.7104H34.3783H46.9005H49.9487C50.9479 29.7117 51.9455 29.6288 52.9309 29.4623C55.7402 29.0902 58.3929 28.2054 60.3454 25.6999C61.6882 23.9303 62.6109 21.6315 62.6109 16.9016V0.322266H54.2408Z" fill="#004098"/>
</g>
<defs>
<clipPath id="clip0_425_2284">
<rect width="169" height="30" fill="white"/>
</clipPath>
</defs>
</svg>
