<svg width="249" height="127" viewBox="0 0 249 127" fill="none" xmlns="http://www.w3.org/2000/svg">
<path d="M64.5435 79.9793C68.1548 79.6318 71.8376 79.5095 75.4057 79.7534C75.4057 79.7534 81.7073 70.6253 82.305 67.9238C82.305 67.9238 63.0993 70.0735 53.3194 73.9856C53.3194 73.9856 41.5009 81.1254 36.5499 86.5276C36.5499 86.5276 44.5782 83.4501 54.9674 81.4047C53.6634 82.5223 52.2304 83.8226 51.0553 85.0695C45.352 86.0619 39.3622 87.6278 34.2105 90.0853C34.2105 90.0853 18.548 105.902 9.67773 126.799C9.67773 126.799 19.8771 97.9951 61.2902 99.8334C61.2902 99.8334 70.4865 85.2738 72.8801 83.3897C72.8801 83.3897 67.8212 83.2319 60.8461 83.8233C61.8171 82.6947 63.1243 81.2616 64.5401 79.9793H64.5435Z" fill="#004098" fill-opacity="0.6"/>
<path d="M11.404 35.9188C11.3145 36.5135 11.2643 37.1153 11.2572 37.7172C10.7663 37.5667 10.2218 37.4198 9.75248 37.6312C9.62356 37.6885 9.50534 37.7709 9.38712 37.8568C8.23711 38.6773 7.01905 39.6231 6.668 40.9916C6.65007 40.447 6.63576 39.8989 6.61783 39.3544C6.60712 38.9495 6.59274 38.5447 6.50322 38.1506C6.43511 37.8533 6.3205 37.5667 6.27033 37.2658C6.15572 36.5708 6.385 35.8686 6.67878 35.2273C6.97248 34.5861 7.3236 33.9663 7.48122 33.2821C7.54926 32.9847 7.58151 32.6731 7.72482 32.4044C7.92901 32.0246 8.44491 31.7416 8.82466 32.2396C8.90702 32.2861 8.97513 32.3542 9.05748 32.3972C9.20441 32.476 9.37996 32.4724 9.54829 32.4689C12.5576 32.4044 15.5776 32.7411 18.5009 33.472C17.9205 34.1526 16.9927 34.4069 16.1185 34.5897C14.6032 34.9085 13.0663 35.127 11.5222 35.2489C11.4757 35.471 11.4363 35.6967 11.404 35.9188Z" fill="#004098" fill-opacity="0.6"/>
<path d="M7.93555 53.5264C7.93555 53.5264 15.122 62.3285 14.7172 65.5635C14.3124 68.7987 10.7192 79.754 10.7192 79.754C10.7192 79.754 16.9598 66.1904 16.7377 64.0804C16.5156 61.9703 7.93555 53.5264 7.93555 53.5264Z" fill="#004098" fill-opacity="0.6"/>
<path d="M16.5703 52.377C16.5703 52.377 19.4112 53.5879 19.3826 54.573C19.3539 55.5582 18.7305 61.5015 17.8815 62.6658C17.8815 62.6658 21.489 57.568 21.833 53.2654C21.833 53.2654 21.2311 53.5484 16.5703 52.377Z" fill="#004098" fill-opacity="0.6"/>
<path d="M26.0923 44.7388C26.0421 44.2194 26.0349 43.6784 26.2248 43.1912C26.4111 42.704 27.0846 42.4389 27.3927 42.2992C25.5764 42.618 24.7954 42.3995 24.1004 41.9194C23.8604 41.7546 23.5523 41.6901 23.3409 41.4896C22.8931 41.0561 22.8179 40.379 22.6065 39.795C22.5707 39.6947 22.5205 39.5837 22.4202 39.5406C22.3414 39.5084 22.2518 39.5228 22.1695 39.5406C21.0589 39.8201 20.2349 40.7193 19.3787 41.4788C16.5952 43.9507 12.7977 45.244 9.08624 44.986C8.42349 44.9395 7.68908 44.8033 7.30217 44.266C7.13377 44.0295 7.0371 43.725 6.66806 43.6784C6.4173 43.6462 6.17016 43.7608 6.00176 43.9507C5.7116 44.2803 5.66858 44.7388 5.63633 45.1651C5.65064 44.9646 5.36048 44.5203 5.2996 44.3054C5.20286 43.965 5.14552 43.614 5.10611 43.2593C5.04523 42.6789 5.04523 42.0771 5.08818 41.5039C4.83388 42.2634 4.60099 43.03 4.35739 43.7895C4.24278 44.1514 4.12456 44.5239 4.14242 44.9036C4.16036 45.2905 4.31082 45.6596 4.46484 46.0142C5.31392 47.9917 6.24536 49.937 7.24845 51.8393C7.00485 49.783 6.81136 47.5153 8.00433 45.8244C9.73113 46.6233 11.7767 46.6949 13.5536 46.0249C13.9799 47.9094 13.6503 49.9549 12.6508 51.6065C14.8577 50.0409 16.4626 47.6478 17.068 45.0147C17.9063 44.7568 18.7482 44.5096 19.5901 44.2767C19.8731 44.1979 20.1597 44.1226 20.4534 44.1477C20.8296 44.1836 21.1664 44.3913 21.4852 44.5955C22.1336 45.0075 22.7857 45.4195 23.3624 45.9246C24.2151 46.6734 24.8885 47.6084 25.4976 48.5685C25.4976 48.5685 25.5012 48.5685 25.5047 48.5649H25.4976C25.4976 48.5649 31.0361 57.0912 31.226 65.6389C31.226 65.6389 34.6544 70.7582 33.9307 74.4306C33.9307 74.4306 36.0085 69.8415 39.3868 68.4905C39.3868 68.4905 40.8341 64.8688 34.1206 58.9756C28.0376 53.6377 26.2069 45.5126 26.0743 44.6708" fill="#004098" fill-opacity="0.6"/>
<path d="M8.52097 81.8391C10.1367 85.4503 12.5011 88.8176 15.8507 90.8991C16.0872 91.0458 16.3272 91.1854 16.5457 91.3578C14.7186 91.1535 12.8235 90.9241 11.2759 89.9317C10.5773 89.4841 10.5128 90.3973 9.87157 89.8782C7.33162 86.1669 6.13149 79.743 7.37102 75.4229C7.31007 76.5335 7.24919 77.658 7.44984 78.7547C7.6003 79.5817 7.89763 80.3733 8.22004 81.151C8.31678 81.3804 8.41707 81.6132 8.51743 81.8426L8.52097 81.8391Z" fill="#004098" fill-opacity="0.6"/>
<path d="M16.6813 77.9876C15.9827 82.4481 16.5416 87.1018 18.2862 91.2642C18.4188 91.5797 18.7627 91.6513 19.0851 91.7549C19.2786 91.816 19.4828 91.8445 19.687 91.866C20.3426 91.9376 21.0018 91.9487 21.661 91.8987C20.9373 90.6519 20.2316 89.3946 19.5723 88.1082C17.8277 84.6978 16.4162 80.9219 16.8354 77.1133C16.778 77.4038 16.7278 77.6936 16.6813 77.9876Z" fill="#004098" fill-opacity="0.6"/>
<path d="M33.4043 77.26C32.806 79.1872 31.6668 80.8393 30.4308 82.4329C29.3346 83.8479 28.1989 85.2275 27.0203 86.5709C25.9061 87.8428 24.7454 89.0931 23.377 90.0814C27.8263 85.3276 30.9037 79.3019 32.1468 72.9072C32.4621 74.2076 32.6412 75.5725 32.6663 76.909C32.6734 77.235 32.6663 77.5644 32.5803 77.88C32.9636 77.4748 33.2717 76.9952 33.4759 76.4754C33.5153 76.6762 33.4688 77.0633 33.4078 77.26H33.4043Z" fill="#004098" fill-opacity="0.6"/>
<path d="M18.368 30.4082C19.7687 30.5623 21.1157 31.0423 22.3767 31.6692C23.6378 32.2962 24.8164 33.0736 25.9879 33.8546C23.1291 32.5756 20.1878 31.4722 16.8454 31.6585C16.3725 31.6836 15.8996 31.551 15.4375 31.4364C16.3833 31.0208 17.3506 30.5981 18.368 30.4082Z" fill="#004098" fill-opacity="0.6"/>
<path d="M24.6402 30.373C25.5 30.5557 26.3061 30.9391 27.0476 31.4048C27.7892 31.8705 28.4735 32.4293 29.1541 32.9846C27.4596 32.0138 25.7042 31.1432 23.6156 31.0537C23.3183 31.0393 23.0352 30.9283 22.7559 30.828C23.3684 30.6273 23.9954 30.4268 24.6402 30.373Z" fill="#004098" fill-opacity="0.6"/>
<path d="M47.035 31.2686C46.7663 31.6483 46.4976 32.0245 46.2289 32.4042C45.8348 32.9595 45.4408 33.5148 44.9714 34.0091C44.3194 34.7006 43.5277 35.2595 42.6608 35.6464C42.2237 35.8434 41.7615 35.9975 41.3674 36.2697C40.9734 36.542 40.6474 36.9755 40.651 37.4555C40.651 37.8138 40.8373 38.1541 40.8516 38.5123C40.5471 37.9929 39.9739 37.4161 38.9959 37.1331C38.1433 36.8894 37.3157 36.5742 36.4595 36.3449C35.4062 36.0655 34.0449 35.9867 32.9773 35.7681C32.0494 35.5783 31.1144 35.4314 30.1758 35.3311C32.4328 35.675 34.7005 35.5855 36.9575 35.238C37.8566 35.0982 38.7523 34.9048 39.6121 34.5931C40.4754 34.2814 41.2958 33.8515 42.109 33.4288C43.6853 32.6048 45.4622 32.0925 47.0385 31.2686H47.035Z" fill="#004098" fill-opacity="0.6"/>
<path d="M27.9336 30.7672C27.9336 30.7672 30.6706 31.4585 31.0719 31.9708C31.0719 31.9708 43.478 25.8627 47.5978 25.0388C47.7805 25.003 50.9188 24.4548 53.6522 26.2066C56.3892 27.9584 61.4941 31.4585 61.4941 31.4585C61.4941 31.4585 64.6682 33.1352 62.734 37.3302C62.734 37.3302 64.7398 33.4647 65.1415 33.1352C65.1415 33.1352 64.4103 32.1321 63.9732 31.2651C63.536 30.3982 58.4278 29.6315 51.7176 23.7598C51.7176 23.7598 50.5497 23.0684 46.2472 24.4907C41.941 25.9129 32.8237 31.6771 27.9372 30.7635L27.9336 30.7672Z" fill="#004098" fill-opacity="0.6"/>
<path d="M30.6836 46.0966C30.4079 45.9282 30.1286 45.7706 29.8457 45.6201C30.1214 45.785 30.4043 45.9426 30.6836 46.0966Z" fill="#004098" fill-opacity="0.6"/>
<path d="M58.7611 49.3775C59.8328 48.636 60.9719 47.8192 62.1256 46.9486C62.1256 46.9486 61.817 55.1418 58.4386 59.1613C55.0607 63.1844 46.2729 71.9217 46.2729 71.9217C46.2729 71.9217 59.2344 60.1573 61.4695 59.1863C61.4695 59.1863 63.7839 46.7516 65.235 44.1436C61.3194 46.8985 55.5909 50.5096 50.9445 50.6386C43.9837 50.832 36.7865 49.4492 30.6855 46.0924C33.6948 47.9159 36.1022 50.721 37.4385 53.9775C41.3577 53.1965 45.4561 53.673 49.4434 53.9381C49.927 53.9703 50.7474 54.0777 50.9373 54.024C51.2024 53.9452 52.1517 53.4723 52.75 53.1606C53.9072 52.5588 56.1426 51.1867 58.7611 49.374V49.3775Z" fill="#004098" fill-opacity="0.6"/>
<path d="M28.5818 21.9112C28.5818 21.9112 27.0592 22.2587 26.0991 22.5633C26.0991 22.5633 12.1704 17.426 0.154866 18.7336C0.0258742 18.7479 21.8539 20.4209 27.7148 28.1985C29.2804 27.7077 30.9176 27.0557 32.5476 26.3464C31.9027 25.268 30.1438 22.5382 28.5818 21.9112Z" fill="#004098" fill-opacity="0.6"/>
<path d="M27.4143 10.7447C27.4143 10.7447 20.3102 9.0466 16.8926 7.54199C16.8926 7.54199 31.5162 14.7427 36.632 25.0459C37.5383 24.6232 38.4268 24.1969 39.2794 23.7921C38.2083 21.7787 33.8663 14.2089 27.4107 10.7447H27.4143Z" fill="#004098" fill-opacity="0.6"/>
<path d="M58.8189 19.6146C60.6384 21.9253 61.8137 24.7304 62.2008 27.6429C64.9377 28.9684 66.6967 29.47 66.965 30.0038C67.0408 30.1542 67.1263 30.3083 67.2124 30.4623C68.004 26.8082 68.3835 22.9463 67.8643 19.3137C67.7066 18.2103 67.4918 17.114 67.1693 16.0501C67.1693 16.0501 65.5069 11.5003 64.4394 9.93475C64.4394 9.93475 66.3458 19.3925 65.2817 22.5093C65.231 22.6561 65.2094 22.2047 65.1705 22.0542C63.2037 14.5131 55.8273 7.37687 51.0662 3.41468C48.6408 1.39411 46.8926 0.201172 46.8926 0.201172C48.6265 1.53387 49.909 3.37882 50.9444 5.30265C53.6886 10.3969 54.4408 16.5587 53.8928 22.3409C56.3432 24.3184 58.5784 25.7263 60.4848 26.7581C59.9365 24.4151 59.9295 21.7175 58.8189 19.611V19.6146Z" fill="#004098" fill-opacity="0.6"/>
<path d="M57.9761 70.0804C57.9761 70.0804 67.0688 67.4332 71.4821 67.3435C71.4821 67.3435 75.7202 62.4893 75.9857 60.9883C75.9857 60.9883 78.9874 64.9611 78.3681 65.5344C77.7482 66.1078 74.7493 67.1677 74.7493 67.1677C74.7493 67.1677 80.7541 65.8423 82.871 65.932C82.871 65.932 87.5136 50.5561 76.7592 49.8504C76.5014 49.8324 76.2574 49.9757 76.1393 50.205L73.6894 55.0736L73.736 53.5296C73.8214 50.814 73.3954 48.1092 72.4815 45.5514L70.8517 40.9873C70.8517 40.9873 70.5973 59.394 57.9727 70.0769L57.9761 70.0804Z" fill="#004098" fill-opacity="0.6"/>
<path d="M71.9609 37.8024C71.9609 37.8024 74.7945 41.1304 76.0774 42.9073C76.575 43.6023 77.2596 44.1326 78.0443 44.43C79.9604 45.1571 83.2533 46.4039 83.3673 46.3752C85.6643 45.8271 90.9449 44.4371 90.9984 43.0041C91.0734 41.0409 87.1363 35.2803 87.1363 35.2803L79.2515 33.2812C79.2515 33.2812 72.2084 34.288 72.2438 34.1876C72.2799 34.0873 83.6508 34.6283 85.592 37.0966L87.3336 40.4498L83.1129 41.9544L77.4744 41.0982L71.9644 37.7952L71.9609 37.8024Z" fill="#004098" fill-opacity="0.6"/>
<path d="M49.5825 14.6493C45.0901 10.9199 37.1801 3.12086 35.2527 2.94892C34.4645 2.87727 33.8268 3.65824 33.5689 4.40703C33.096 5.7791 32.9993 7.27655 33.6012 8.59489C34.1492 9.80218 34.8442 10.9343 35.464 12.1058C37.0762 15.1437 39.2471 18.2497 40.8736 21.2804C41.0097 21.5348 41.153 21.7927 41.3679 21.9826C41.6008 22.1904 41.9017 22.305 42.1919 22.4089C42.7902 22.6239 42.9048 22.6776 43.4314 22.8352C44.0154 22.5916 44.5599 22.3803 45.0472 22.219C47.7519 21.3235 49.4142 21.1336 50.3814 21.1515C50.6 20.8183 50.7326 20.3849 50.8902 20.023C51.7106 18.1494 51.1517 15.9533 49.5754 14.6457L49.5825 14.6493ZM47.5477 18.0741C47.4689 18.2569 47.4008 18.4754 47.2898 18.6438C46.9244 18.6366 46.3583 18.6903 45.5236 18.9053C45.2442 18.9769 44.9361 19.0701 44.5958 19.1811C44.3486 19.2636 44.0763 19.3674 43.7789 19.4928C43.5139 19.414 43.4565 19.3853 43.152 19.2779C43.0051 19.2241 42.8547 19.1668 42.7364 19.0629C42.629 18.9662 42.5537 18.8372 42.4857 18.7083C41.6653 17.1786 40.569 15.6094 39.7558 14.0761C39.4405 13.485 39.093 12.9118 38.8137 12.3028C38.5091 11.6364 38.5593 10.8805 38.7993 10.1891C38.9283 9.8094 39.2507 9.41888 39.6484 9.45468C40.6228 9.54072 44.6136 13.4778 46.8814 15.3622C47.6767 16.0214 47.9597 17.1319 47.5441 18.0777L47.5477 18.0741Z" fill="#004098" fill-opacity="0.6"/>
<path d="M109.385 54.6685V35.5059H114.092V42.8714H121.977V35.5059H126.685V54.6685H121.977V47.1668H114.092V54.6685H109.385Z" fill="#004098" fill-opacity="0.6"/>
<path d="M128.082 54.6685L135.938 35.5059H141.33L149.079 54.6685H143.988L142.236 50.0399H134.763L132.982 54.6685H128.082ZM136.185 46.2927H140.839L138.539 40.1595L136.185 46.2927Z" fill="#004098" fill-opacity="0.6"/>
<path d="M150.476 54.6685V35.5059H154.912L163.616 46.6222V35.5059H168.052V54.6685H163.889L154.907 43.115V54.6685H150.473H150.476Z" fill="#004098" fill-opacity="0.6"/>
<path d="M178.291 54.9448C176.739 54.9448 175.206 54.6618 173.691 54.0958C172.175 53.5298 170.824 52.7452 169.639 51.7421L172.269 48.3209C173.436 49.2702 174.515 49.9508 175.5 50.3593C176.485 50.7712 177.535 50.9754 178.649 50.9754C179.38 50.9754 179.999 50.9038 180.511 50.7569C181.024 50.6101 181.414 50.3951 181.69 50.1121C181.962 49.8291 182.102 49.4959 182.102 49.1125C182.102 48.5823 181.901 48.1739 181.5 47.8802C181.099 47.59 180.415 47.3607 179.448 47.1959L175.231 46.4579C173.68 46.1857 172.483 45.591 171.645 44.6775C170.806 43.764 170.387 42.6068 170.387 41.1989C170.387 39.9593 170.703 38.8917 171.333 37.9962C171.963 37.1005 172.866 36.4163 174.045 35.9434C175.224 35.4705 176.625 35.2305 178.248 35.2305C179.67 35.2305 181.103 35.4741 182.546 35.9541C183.986 36.4378 185.237 37.1077 186.297 37.9675L183.808 41.4461C181.837 39.9307 179.874 39.1748 177.922 39.1748C177.284 39.1748 176.732 39.2428 176.266 39.379C175.801 39.5151 175.446 39.7086 175.199 39.9522C174.951 40.1994 174.83 40.4967 174.83 40.8406C174.83 41.3171 175.009 41.679 175.363 41.9369C175.719 42.1912 176.299 42.3918 177.101 42.5387L181.071 43.1943C182.912 43.4881 184.316 44.0971 185.273 45.0285C186.229 45.96 186.709 47.1637 186.709 48.6433C186.709 49.9401 186.372 51.0578 185.695 51.9964C185.022 52.935 184.054 53.6623 182.794 54.1746C181.536 54.6869 180.039 54.9412 178.305 54.9412L178.291 54.9448Z" fill="#004098" fill-opacity="0.6"/>
<path d="M197.288 54.9454C195.517 54.9454 193.977 54.5942 192.673 53.8921C191.369 53.1899 190.359 52.1904 189.65 50.8936C188.936 49.5967 188.582 48.0742 188.582 46.3223V35.5068H193.289V46.3223C193.289 47.1821 193.454 47.9344 193.783 48.5793C194.114 49.2277 194.583 49.7256 195.195 50.0731C195.808 50.4206 196.513 50.5926 197.316 50.5926C198.119 50.5926 198.846 50.4206 199.437 50.0731C200.031 49.7256 200.49 49.2277 200.82 48.5793C201.149 47.9309 201.314 47.1785 201.314 46.3223V35.5068H206.022V46.3223C206.022 48.0562 205.66 49.5716 204.94 50.8685C204.22 52.1654 203.206 53.1684 201.902 53.8813C200.598 54.5942 199.057 54.9489 197.288 54.9489V54.9454Z" fill="#004098" fill-opacity="0.6"/>
<path d="M208.923 54.6694V35.5068H213.359L222.064 46.6232V35.5068H226.499V54.6694H222.336L213.355 43.116V54.6694H208.92H208.923Z" fill="#004098" fill-opacity="0.6"/>
<path d="M239.256 54.9699C237.816 54.9699 236.472 54.7192 235.233 54.2176C233.993 53.7161 232.901 53.0139 231.963 52.1111C231.024 51.2084 230.293 50.1587 229.773 48.9621C229.254 47.7656 228.992 46.4759 228.992 45.0895C228.992 43.7031 229.254 42.4098 229.773 41.2168C230.293 40.0203 231.013 38.9706 231.938 38.0678C232.858 37.1651 233.94 36.4629 235.183 35.9613C236.422 35.4598 237.755 35.209 239.181 35.209C240.804 35.209 242.337 35.5422 243.781 36.2085C245.221 36.8749 246.4 37.792 247.313 38.9599L243.999 41.9441C243.379 41.1416 242.664 40.5397 241.85 40.1385C241.037 39.7373 240.148 39.5367 239.181 39.5367C238.414 39.5367 237.709 39.6799 237.06 39.9594C236.412 40.2424 235.846 40.6293 235.362 41.1237C234.879 41.6181 234.502 42.202 234.241 42.8755C233.976 43.5526 233.843 44.2906 233.843 45.0931C233.843 45.8955 233.98 46.6407 234.255 47.3249C234.527 48.0092 234.918 48.6039 235.42 49.1054C235.921 49.607 236.505 50.0011 237.171 50.2841C237.837 50.5671 238.561 50.7068 239.35 50.7068C240.138 50.7068 240.779 50.5778 241.388 50.3235C242.001 50.0691 242.524 49.7109 242.96 49.2559C243.397 48.8009 243.71 48.2779 243.892 47.694H238.719V43.6135H248.986V44.982C248.986 46.4222 248.743 47.7512 248.259 48.9657C247.775 50.1802 247.098 51.237 246.235 52.1398C245.368 53.0425 244.34 53.7412 243.154 54.2355C241.969 54.7299 240.672 54.9735 239.267 54.9735L239.256 54.9699Z" fill="#004098" fill-opacity="0.6"/>
<path d="M109.385 87.5239V68.3613H114.093V83.365H124.195V87.5273H109.385V87.5239Z" fill="#004098" fill-opacity="0.6"/>
<path d="M126.82 87.5239V68.3613H131.528V87.5239H126.82Z" fill="#004098" fill-opacity="0.6"/>
<path d="M134.705 87.5239V68.3613H139.413V76.7375L147.162 68.3613H152.858L143.987 77.3678L153.352 87.5239H147.112L139.42 78.7363V87.5239H134.713H134.705Z" fill="#004098" fill-opacity="0.6"/>
<path d="M153.844 87.5239V68.3613H168.954V72.4417H158.551V75.8917H165.422V79.8323H158.551V83.447H169.066V87.5273H153.844V87.5239Z" fill="#004098" fill-opacity="0.6"/>
<path d="M171.83 87.5239V68.3613H176.537V83.365H186.64V87.5273H171.83V87.5239Z" fill="#004098" fill-opacity="0.6"/>
<path d="M189.27 87.5239V68.3613H193.977V87.5239H189.27Z" fill="#004098" fill-opacity="0.6"/>
<path d="M206.706 87.8254C205.265 87.8254 203.921 87.5745 202.682 87.0727C201.442 86.5716 200.353 85.869 199.425 84.9662C198.494 84.064 197.771 83.0139 197.247 81.8178C196.728 80.621 196.467 79.3311 196.467 77.9446C196.467 76.5587 196.728 75.2653 197.247 74.072C197.767 72.8759 198.494 71.8258 199.425 70.923C200.357 70.0202 201.442 69.3182 202.682 68.8164C203.921 68.3153 205.265 68.0645 206.706 68.0645C208.146 68.0645 209.489 68.3153 210.728 68.8164C211.968 69.3182 213.057 70.0202 213.985 70.923C214.913 71.8258 215.64 72.8759 216.163 74.072C216.682 75.2688 216.944 76.5587 216.944 77.9446C216.944 79.3311 216.682 80.6245 216.163 81.8178C215.643 83.0139 214.916 84.064 213.985 84.9662C213.054 85.869 211.968 86.5716 210.728 87.0727C209.486 87.5745 208.146 87.8254 206.706 87.8254ZM206.706 83.4976C207.472 83.4976 208.184 83.3579 208.841 83.0751C209.496 82.7922 210.069 82.4051 210.553 81.9109C211.037 81.4161 211.416 80.8288 211.689 80.1442C211.96 79.4604 212.1 78.7258 212.1 77.9411C212.1 77.1564 211.965 76.401 211.689 75.724C211.416 75.0499 211.037 74.4626 210.553 73.972C210.069 73.4778 209.499 73.0907 208.841 72.8078C208.184 72.5243 207.472 72.3846 206.706 72.3846C205.938 72.3846 205.226 72.5243 204.57 72.8078C203.914 73.0907 203.341 73.4778 202.857 73.972C202.374 74.4661 201.994 75.0499 201.722 75.724C201.45 76.3975 201.31 77.1391 201.31 77.9411C201.31 78.7438 201.446 79.4604 201.722 80.1442C201.994 80.8288 202.374 81.4161 202.857 81.9109C203.341 82.4051 203.911 82.7922 204.57 83.0751C205.226 83.3579 205.938 83.4976 206.706 83.4976Z" fill="#004098" fill-opacity="0.6"/>
<path d="M219.439 87.5239V68.3613H223.875L232.579 79.4778V68.3613H237.015V87.5239H232.852L223.87 75.9709V87.5239H219.436H219.439Z" fill="#004098" fill-opacity="0.6"/>
</svg>
