<svg width="636" height="676" viewBox="0 0 636 676" fill="none" xmlns="http://www.w3.org/2000/svg">
<g filter="url(#filter0_d_52_2560)">
<g clip-path="url(#clip0_52_2560)">
<path d="M20 20H546C573.614 20 596 42.3858 596 70V586C596 613.614 573.614 636 546 636H20V20Z" fill="url(#paint0_linear_52_2560)" shape-rendering="crispEdges"/>
<path d="M131.08 381.24H142.72V382.58H131.08V381.24ZM129 387.2H145.4V388.54H129V387.2ZM141.64 381.24H143.28V382.4C143.28 383.04 143.26 383.793 143.22 384.66C143.18 385.513 143.04 386.493 142.8 387.6L141.16 387.42C141.4 386.327 141.54 385.373 141.58 384.56C141.62 383.747 141.64 383.027 141.64 382.4V381.24ZM130.94 390.34H143.32V394.92H132.62V397.44H130.98V393.64H141.68V391.66H130.94V390.34ZM130.98 397.02H143.78V398.34H130.98V397.02ZM146.898 394.94H163.298V396.32H146.898V394.94ZM154.238 391.08H155.878V395.52H154.238V391.08ZM148.898 381.8H161.258V387.28H150.578V390.9H148.938V385.96H159.618V383.16H148.898V381.8ZM148.938 390.2H161.678V391.56H148.938V390.2ZM173.377 384.48H178.557V385.84H173.377V384.48ZM178.017 380.46H179.657V389.86H178.017V380.46ZM168.017 390.74H179.657V395.06H169.697V397.78H168.057V393.82H178.017V392.08H168.017V390.74ZM168.057 396.98H180.337V398.32H168.057V396.98ZM165.677 381.3H167.337V383.86H172.217V381.3H173.857V389.16H165.677V381.3ZM167.337 385.18V387.82H172.217V385.18H167.337ZM192.008 383.6H193.348V384.36C193.348 385.413 193.142 386.387 192.728 387.28C192.315 388.173 191.728 388.947 190.968 389.6C190.222 390.253 189.342 390.753 188.328 391.1L187.508 389.8C188.415 389.52 189.202 389.107 189.868 388.56C190.535 388.013 191.055 387.38 191.428 386.66C191.815 385.927 192.008 385.16 192.008 384.36V383.6ZM192.288 383.6H193.648V384.36C193.648 385.093 193.828 385.787 194.188 386.44C194.562 387.093 195.082 387.673 195.748 388.18C196.415 388.673 197.188 389.053 198.068 389.32L197.288 390.64C196.288 390.32 195.408 389.853 194.648 389.24C193.902 388.627 193.322 387.907 192.908 387.08C192.495 386.24 192.288 385.333 192.288 384.36V383.6ZM187.988 382.66H197.648V384H187.988V382.66ZM192.008 380.38H193.668V383.12H192.008V380.38ZM199.868 380.46H201.528V391.54H199.868V380.46ZM201.068 385.14H204.188V386.52H201.068V385.14ZM195.768 392C196.995 392 198.048 392.127 198.928 392.38C199.822 392.633 200.508 393.007 200.988 393.5C201.468 393.98 201.708 394.567 201.708 395.26C201.708 396.287 201.182 397.08 200.128 397.64C199.075 398.213 197.622 398.5 195.768 398.5C194.528 398.5 193.462 398.373 192.568 398.12C191.688 397.867 191.008 397.493 190.528 397C190.048 396.52 189.808 395.94 189.808 395.26C189.808 394.567 190.048 393.98 190.528 393.5C191.008 393.007 191.688 392.633 192.568 392.38C193.462 392.127 194.528 392 195.768 392ZM195.768 393.3C194.862 393.3 194.088 393.38 193.448 393.54C192.808 393.687 192.315 393.907 191.968 394.2C191.622 394.493 191.448 394.847 191.448 395.26C191.448 395.673 191.622 396.027 191.968 396.32C192.315 396.613 192.808 396.84 193.448 397C194.088 397.147 194.862 397.22 195.768 397.22C196.662 397.22 197.428 397.147 198.068 397C198.722 396.84 199.215 396.613 199.548 396.32C199.895 396.027 200.068 395.673 200.068 395.26C200.068 394.847 199.895 394.493 199.548 394.2C199.215 393.907 198.722 393.687 198.068 393.54C197.428 393.38 196.662 393.3 195.768 393.3ZM211.247 381.78C212.193 381.78 213.027 381.96 213.747 382.32C214.48 382.667 215.053 383.16 215.467 383.8C215.88 384.44 216.087 385.187 216.087 386.04C216.087 386.88 215.88 387.627 215.467 388.28C215.053 388.92 214.48 389.42 213.747 389.78C213.027 390.127 212.193 390.3 211.247 390.3C210.313 390.3 209.48 390.127 208.747 389.78C208.013 389.42 207.433 388.92 207.007 388.28C206.593 387.627 206.387 386.88 206.387 386.04C206.387 385.187 206.593 384.44 207.007 383.8C207.433 383.16 208.013 382.667 208.747 382.32C209.48 381.96 210.313 381.78 211.247 381.78ZM211.247 383.22C210.633 383.22 210.08 383.34 209.587 383.58C209.107 383.807 208.727 384.133 208.447 384.56C208.167 384.987 208.027 385.48 208.027 386.04C208.027 386.6 208.167 387.093 208.447 387.52C208.727 387.947 209.107 388.28 209.587 388.52C210.08 388.747 210.633 388.86 211.247 388.86C211.873 388.86 212.427 388.747 212.907 388.52C213.387 388.28 213.767 387.947 214.047 387.52C214.327 387.093 214.467 386.6 214.467 386.04C214.467 385.48 214.327 384.987 214.047 384.56C213.767 384.133 213.387 383.807 212.907 383.58C212.427 383.34 211.873 383.22 211.247 383.22ZM218.467 380.46H220.127V398.58H218.467V380.46ZM205.707 394.62L205.487 393.22C206.593 393.22 207.807 393.213 209.127 393.2C210.447 393.173 211.807 393.12 213.207 393.04C214.62 392.947 215.98 392.8 217.287 392.6L217.427 393.82C216.067 394.073 214.687 394.26 213.287 394.38C211.9 394.487 210.56 394.553 209.267 394.58C207.973 394.607 206.787 394.62 205.707 394.62ZM227.385 389.6H229.045V393.18H227.385V389.6ZM233.905 389.6H235.565V393.18H233.905V389.6ZM223.285 388.92H239.625V390.28H223.285V388.92ZM231.445 392.12C233.378 392.12 234.892 392.4 235.985 392.96C237.078 393.507 237.625 394.293 237.625 395.32C237.625 396.347 237.078 397.14 235.985 397.7C234.892 398.26 233.378 398.54 231.445 398.54C229.512 398.54 227.992 398.26 226.885 397.7C225.792 397.14 225.245 396.347 225.245 395.32C225.245 394.293 225.792 393.507 226.885 392.96C227.992 392.4 229.512 392.12 231.445 392.12ZM231.425 393.4C230.492 393.4 229.685 393.48 229.005 393.64C228.338 393.787 227.825 394 227.465 394.28C227.105 394.56 226.925 394.907 226.925 395.32C226.925 395.733 227.105 396.087 227.465 396.38C227.825 396.66 228.338 396.873 229.005 397.02C229.685 397.167 230.492 397.24 231.425 397.24C232.385 397.24 233.198 397.167 233.865 397.02C234.545 396.873 235.065 396.66 235.425 396.38C235.785 396.087 235.965 395.733 235.965 395.32C235.965 394.907 235.785 394.56 235.425 394.28C235.065 394 234.545 393.787 233.865 393.64C233.198 393.48 232.385 393.4 231.425 393.4ZM231.445 380.82C232.752 380.82 233.878 380.953 234.825 381.22C235.785 381.487 236.518 381.873 237.025 382.38C237.545 382.887 237.805 383.5 237.805 384.22C237.805 384.927 237.545 385.533 237.025 386.04C236.518 386.533 235.785 386.913 234.825 387.18C233.878 387.447 232.752 387.58 231.445 387.58C230.138 387.58 229.005 387.447 228.045 387.18C227.098 386.913 226.365 386.533 225.845 386.04C225.338 385.533 225.085 384.927 225.085 384.22C225.085 383.5 225.338 382.887 225.845 382.38C226.365 381.873 227.098 381.487 228.045 381.22C229.005 380.953 230.138 380.82 231.445 380.82ZM231.445 382.14C230.498 382.14 229.672 382.22 228.965 382.38C228.272 382.54 227.732 382.78 227.345 383.1C226.972 383.407 226.785 383.78 226.785 384.22C226.785 384.647 226.972 385.02 227.345 385.34C227.732 385.647 228.272 385.88 228.965 386.04C229.672 386.2 230.498 386.28 231.445 386.28C232.405 386.28 233.232 386.2 233.925 386.04C234.632 385.88 235.172 385.647 235.545 385.34C235.918 385.02 236.105 384.647 236.105 384.22C236.105 383.78 235.918 383.407 235.545 383.1C235.172 382.78 234.632 382.54 233.925 382.38C233.232 382.22 232.405 382.14 231.445 382.14ZM253.564 380.46H255.224V390.98H253.564V380.46ZM254.504 385.08H257.884V386.48H254.504V385.08ZM243.844 391.78H245.484V393.68H253.564V391.78H255.224V398.32H243.844V391.78ZM245.484 394.98V396.98H253.564V394.98H245.484ZM241.224 382.32H251.904V383.66H241.224V382.32ZM246.564 384.5C247.43 384.5 248.184 384.633 248.824 384.9C249.477 385.153 249.984 385.52 250.344 386C250.704 386.467 250.884 387.02 250.884 387.66C250.884 388.3 250.704 388.86 250.344 389.34C249.984 389.82 249.477 390.193 248.824 390.46C248.184 390.713 247.43 390.84 246.564 390.84C245.697 390.84 244.937 390.713 244.284 390.46C243.644 390.193 243.137 389.82 242.764 389.34C242.404 388.86 242.224 388.3 242.224 387.66C242.224 387.02 242.404 386.467 242.764 386C243.137 385.52 243.644 385.153 244.284 384.9C244.937 384.633 245.697 384.5 246.564 384.5ZM246.564 385.76C245.737 385.76 245.07 385.933 244.564 386.28C244.07 386.627 243.824 387.087 243.824 387.66C243.824 388.247 244.07 388.713 244.564 389.06C245.07 389.407 245.737 389.58 246.564 389.58C247.377 389.58 248.037 389.407 248.544 389.06C249.05 388.713 249.304 388.247 249.304 387.66C249.304 387.087 249.05 386.627 248.544 386.28C248.05 385.933 247.39 385.76 246.564 385.76ZM245.744 380.3H247.404V383.04H245.744V380.3ZM265.575 382.28H277.195V383.64H265.575V382.28ZM263.875 394.64H280.215V396.02H263.875V394.64ZM267.875 388.68H269.535V395.14H267.875V388.68ZM276.655 382.28H278.315V384.26C278.315 385.02 278.302 385.807 278.275 386.62C278.262 387.433 278.208 388.307 278.115 389.24C278.035 390.16 277.888 391.18 277.675 392.3L276.035 392.12C276.342 390.507 276.522 389.08 276.575 387.84C276.628 386.587 276.655 385.393 276.655 384.26V382.28ZM272.355 388.68H273.995V395.14H272.355V388.68ZM286.073 389.82H287.733V393.4H286.073V389.82ZM292.153 389.82H293.793V393.38H292.153V389.82ZM281.773 389.18H298.113V390.52H281.773V389.18ZM283.593 392.78H296.093V398.56H294.433V394.12H283.593V392.78ZM289.933 380.88C291.24 380.88 292.367 381.02 293.313 381.3C294.26 381.58 294.993 381.98 295.513 382.5C296.033 383.007 296.293 383.62 296.293 384.34C296.293 385.073 296.033 385.7 295.513 386.22C294.993 386.727 294.26 387.12 293.313 387.4C292.367 387.68 291.24 387.82 289.933 387.82C288.64 387.82 287.513 387.68 286.553 387.4C285.607 387.12 284.873 386.727 284.353 386.22C283.833 385.7 283.573 385.073 283.573 384.34C283.573 383.62 283.833 383.007 284.353 382.5C284.873 381.98 285.607 381.58 286.553 381.3C287.513 381.02 288.64 380.88 289.933 380.88ZM289.933 382.2C288.987 382.2 288.16 382.287 287.453 382.46C286.76 382.62 286.22 382.86 285.833 383.18C285.46 383.5 285.273 383.887 285.273 384.34C285.273 384.793 285.46 385.18 285.833 385.5C286.22 385.82 286.76 386.067 287.453 386.24C288.16 386.413 288.987 386.5 289.933 386.5C290.893 386.5 291.72 386.413 292.413 386.24C293.12 386.067 293.66 385.82 294.033 385.5C294.407 385.18 294.593 384.793 294.593 384.34C294.593 383.887 294.407 383.5 294.033 383.18C293.66 382.86 293.12 382.62 292.413 382.46C291.72 382.287 290.893 382.2 289.933 382.2ZM307.832 380.78C309.832 380.78 311.392 381.053 312.512 381.6C313.632 382.133 314.192 382.9 314.192 383.9C314.192 384.913 313.632 385.693 312.512 386.24C311.392 386.773 309.832 387.04 307.832 387.04C305.845 387.04 304.285 386.773 303.152 386.24C302.032 385.693 301.472 384.913 301.472 383.9C301.472 382.9 302.032 382.133 303.152 381.6C304.285 381.053 305.845 380.78 307.832 380.78ZM307.832 382.02C306.859 382.02 306.025 382.093 305.332 382.24C304.639 382.387 304.105 382.6 303.732 382.88C303.372 383.16 303.192 383.5 303.192 383.9C303.192 384.3 303.372 384.647 303.732 384.94C304.105 385.22 304.639 385.433 305.332 385.58C306.025 385.713 306.859 385.78 307.832 385.78C308.819 385.78 309.659 385.713 310.352 385.58C311.045 385.433 311.572 385.22 311.932 384.94C312.305 384.647 312.492 384.3 312.492 383.9C312.492 383.5 312.305 383.16 311.932 382.88C311.572 382.6 311.045 382.387 310.352 382.24C309.659 382.093 308.819 382.02 307.832 382.02ZM299.672 388.26H316.012V389.6H299.672V388.26ZM301.652 391.14H313.912V395.22H303.312V397.4H301.692V394H312.292V392.42H301.652V391.14ZM301.692 397.06H314.452V398.36H301.692V397.06ZM331.643 384.72H336.183V386.1H331.643V384.72ZM326.903 381.56H328.243V383.78C328.243 384.94 328.037 386.027 327.623 387.04C327.21 388.053 326.63 388.94 325.883 389.7C325.137 390.447 324.263 391.02 323.263 391.42L322.383 390.1C323.063 389.847 323.677 389.507 324.223 389.08C324.783 388.653 325.257 388.16 325.643 387.6C326.043 387.04 326.35 386.44 326.563 385.8C326.79 385.147 326.903 384.473 326.903 383.78V381.56ZM327.203 381.56H328.543V383.84C328.543 384.467 328.65 385.08 328.863 385.68C329.077 386.28 329.377 386.84 329.763 387.36C330.15 387.88 330.61 388.34 331.143 388.74C331.69 389.14 332.29 389.46 332.943 389.7L332.043 391C331.083 390.613 330.237 390.067 329.503 389.36C328.783 388.653 328.217 387.827 327.803 386.88C327.403 385.933 327.203 384.92 327.203 383.84V381.56ZM335.583 380.48H337.243V394H335.583V380.48ZM325.623 396.8H337.663V398.16H325.623V396.8ZM325.623 392.5H327.283V397.42H325.623V392.5ZM342.342 388.92H354.762V390.26H342.342V388.92ZM340.262 394.9H356.662V396.28H340.262V394.9ZM347.602 389.5H349.242V395.44H347.602V389.5ZM342.342 381.9H354.582V383.28H344.002V389.52H342.342V381.9ZM370.42 380.46H372.06V398.56H370.42V380.46ZM371.68 387.9H375.02V389.3H371.68V387.9ZM358.06 383.36H368.72V384.72H358.06V383.36ZM363.48 386.2C364.333 386.2 365.087 386.38 365.74 386.74C366.407 387.1 366.927 387.593 367.3 388.22C367.687 388.833 367.88 389.547 367.88 390.36C367.88 391.173 367.687 391.893 367.3 392.52C366.927 393.147 366.407 393.64 365.74 394C365.087 394.347 364.333 394.52 363.48 394.52C362.627 394.52 361.867 394.347 361.2 394C360.547 393.64 360.027 393.147 359.64 392.52C359.253 391.893 359.06 391.173 359.06 390.36C359.06 389.547 359.253 388.833 359.64 388.22C360.027 387.593 360.547 387.1 361.2 386.74C361.867 386.38 362.627 386.2 363.48 386.2ZM363.48 387.58C362.933 387.58 362.447 387.7 362.02 387.94C361.593 388.18 361.253 388.507 361 388.92C360.76 389.333 360.64 389.813 360.64 390.36C360.64 390.907 360.76 391.393 361 391.82C361.253 392.233 361.593 392.56 362.02 392.8C362.447 393.027 362.933 393.14 363.48 393.14C364.013 393.14 364.493 393.027 364.92 392.8C365.347 392.56 365.68 392.233 365.92 391.82C366.173 391.393 366.3 390.907 366.3 390.36C366.3 389.813 366.173 389.333 365.92 388.92C365.68 388.507 365.347 388.18 364.92 387.94C364.493 387.7 364.013 387.58 363.48 387.58ZM362.62 380.68H364.28V383.96H362.62V380.68ZM378.259 385.9H390.559V387.24H378.259V385.9ZM376.039 389.66H392.439V391.02H376.039V389.66ZM378.259 381.12H379.899V386.58H378.259V381.12ZM378.139 396.76H390.659V398.12H378.139V396.76ZM378.139 392.84H379.799V397.12H378.139V392.84ZM411.13 380.48H412.79V394.04H411.13V380.48ZM412.27 386.42H415.45V387.8H412.27V386.42ZM398.79 382.68H409.47V384.02H398.79V382.68ZM404.13 385C404.983 385 405.737 385.147 406.39 385.44C407.043 385.72 407.55 386.113 407.91 386.62C408.27 387.113 408.45 387.7 408.45 388.38C408.45 389.06 408.27 389.653 407.91 390.16C407.55 390.653 407.043 391.04 406.39 391.32C405.737 391.6 404.983 391.74 404.13 391.74C403.277 391.74 402.523 391.6 401.87 391.32C401.217 391.04 400.703 390.653 400.33 390.16C399.97 389.653 399.79 389.06 399.79 388.38C399.79 387.7 399.97 387.113 400.33 386.62C400.703 386.113 401.217 385.72 401.87 385.44C402.523 385.147 403.277 385 404.13 385ZM404.13 386.3C403.317 386.3 402.657 386.493 402.15 386.88C401.643 387.253 401.39 387.753 401.39 388.38C401.39 389.007 401.643 389.507 402.15 389.88C402.657 390.253 403.317 390.44 404.13 390.44C404.957 390.44 405.617 390.253 406.11 389.88C406.617 389.507 406.87 389.007 406.87 388.38C406.87 387.753 406.617 387.253 406.11 386.88C405.617 386.493 404.957 386.3 404.13 386.3ZM403.31 380.48H404.97V383.36H403.31V380.48ZM401.53 396.8H413.59V398.16H401.53V396.8ZM401.53 392.96H403.17V397.36H401.53V392.96ZM421.208 381.48H422.588V383.34C422.588 384.513 422.375 385.593 421.948 386.58C421.535 387.567 420.948 388.433 420.188 389.18C419.442 389.913 418.548 390.473 417.508 390.86L416.628 389.52C417.562 389.187 418.368 388.713 419.048 388.1C419.728 387.487 420.255 386.773 420.628 385.96C421.015 385.133 421.208 384.26 421.208 383.34V381.48ZM421.508 381.48H422.848V383.28C422.848 384.133 423.035 384.94 423.408 385.7C423.782 386.46 424.295 387.133 424.948 387.72C425.615 388.293 426.388 388.727 427.268 389.02L426.368 390.32C425.395 389.947 424.542 389.42 423.808 388.74C423.075 388.06 422.508 387.253 422.108 386.32C421.708 385.387 421.508 384.373 421.508 383.28V381.48ZM429.868 380.46H431.528V391.16H429.868V380.46ZM425.568 391.7C427.435 391.7 428.902 392 429.968 392.6C431.048 393.2 431.588 394.04 431.588 395.12C431.588 396.187 431.048 397.02 429.968 397.62C428.902 398.22 427.435 398.52 425.568 398.52C423.702 398.52 422.228 398.22 421.148 397.62C420.082 397.02 419.548 396.187 419.548 395.12C419.548 394.04 420.082 393.2 421.148 392.6C422.228 392 423.702 391.7 425.568 391.7ZM425.568 393.02C424.662 393.02 423.882 393.107 423.228 393.28C422.575 393.44 422.068 393.68 421.708 394C421.362 394.307 421.188 394.68 421.188 395.12C421.188 395.547 421.362 395.92 421.708 396.24C422.068 396.547 422.575 396.787 423.228 396.96C423.882 397.12 424.662 397.2 425.568 397.2C426.488 397.2 427.268 397.12 427.908 396.96C428.562 396.787 429.062 396.547 429.408 396.24C429.768 395.92 429.948 395.547 429.948 395.12C429.948 394.68 429.768 394.307 429.408 394C429.062 393.68 428.562 393.44 427.908 393.28C427.268 393.107 426.488 393.02 425.568 393.02ZM425.928 384.28H430.208V385.66H425.928V384.28ZM448.307 380.46H449.887V398.56H448.307V380.46ZM445.247 387.72H448.727V389.08H445.247V387.72ZM444.207 380.86H445.747V397.62H444.207V380.86ZM435.187 392.7H436.367C437.26 392.7 438.067 392.693 438.787 392.68C439.52 392.653 440.214 392.6 440.867 392.52C441.534 392.44 442.214 392.327 442.907 392.18L443.067 393.56C442.347 393.707 441.647 393.82 440.967 393.9C440.3 393.98 439.594 394.033 438.847 394.06C438.114 394.087 437.287 394.1 436.367 394.1H435.187V392.7ZM435.187 382.66H441.907V384.02H436.847V393.34H435.187V382.66ZM452.485 382.38H463.165V383.72H452.485V382.38ZM457.825 384.66C458.679 384.66 459.432 384.793 460.085 385.06C460.739 385.327 461.245 385.707 461.605 386.2C461.965 386.68 462.145 387.253 462.145 387.92C462.145 388.587 461.965 389.16 461.605 389.64C461.245 390.12 460.739 390.5 460.085 390.78C459.432 391.047 458.679 391.18 457.825 391.18C456.972 391.18 456.219 391.047 455.565 390.78C454.912 390.5 454.399 390.12 454.025 389.64C453.665 389.16 453.485 388.587 453.485 387.92C453.485 387.253 453.665 386.68 454.025 386.2C454.399 385.707 454.912 385.327 455.565 385.06C456.219 384.793 456.972 384.66 457.825 384.66ZM457.825 385.94C456.999 385.94 456.332 386.12 455.825 386.48C455.332 386.827 455.085 387.307 455.085 387.92C455.085 388.52 455.332 389 455.825 389.36C456.332 389.707 456.999 389.88 457.825 389.88C458.639 389.88 459.299 389.707 459.805 389.36C460.312 389 460.565 388.52 460.565 387.92C460.565 387.307 460.312 386.827 459.805 386.48C459.312 386.12 458.652 385.94 457.825 385.94ZM464.825 380.46H466.485V391.78H464.825V380.46ZM466.025 385.46H469.145V386.84H466.025V385.46ZM454.725 392.76H466.485V398.56H464.825V394.12H454.725V392.76ZM457.005 380.38H458.665V383.12H457.005V380.38ZM472.044 382.28H483.664V383.64H472.044V382.28ZM470.344 394.64H486.684V396.02H470.344V394.64ZM474.344 388.68H476.004V395.14H474.344V388.68ZM483.124 382.28H484.784V384.26C484.784 385.02 484.77 385.807 484.744 386.62C484.73 387.433 484.677 388.307 484.584 389.24C484.504 390.16 484.357 391.18 484.144 392.3L482.504 392.12C482.81 390.507 482.99 389.08 483.044 387.84C483.097 386.587 483.124 385.393 483.124 384.26V382.28ZM478.824 388.68H480.464V395.14H478.824V388.68Z" fill="#023F98"/>
<path d="M-136.735 -215.616C8.24281 -333.103 172.69 -398.438 321.333 -409.135C469.979 -419.833 602.722 -375.893 684.511 -274.966C766.3 -174.039 781.78 -35.0727 740.514 108.131C699.248 251.331 601.256 398.671 456.278 516.158C311.3 633.645 146.853 698.98 -1.78958 709.677C-150.436 720.375 -283.179 676.435 -364.968 575.508C-446.757 474.581 -462.237 335.615 -420.971 192.411C-379.706 49.2107 -281.713 -98.129 -136.735 -215.616Z" stroke="url(#paint1_linear_52_2560)" stroke-width="2"/>
<path d="M-78.9992 188.646L526.837 20" stroke="#6D8AB4" stroke-width="2"/>
<path d="M609.5 -455C846.336 -455 1038 -295.671 1038 -99.5C1038 96.6709 846.336 256 609.5 256C372.664 256 181 96.6709 181 -99.5C181 -295.671 372.664 -455 609.5 -455Z" stroke="#6D8AB4" stroke-width="2"/>
<g filter="url(#filter1_d_52_2560)">
<circle cx="128" cy="127" r="49" fill="#8AA3E1"/>
</g>
<g filter="url(#filter2_d_52_2560)">
<circle cx="423.087" cy="221.087" r="19" transform="rotate(3.37892 423.087 221.087)" fill="#7394C5"/>
</g>
<g filter="url(#filter3_d_52_2560)">
<circle cx="479.892" cy="241.104" r="9.5" transform="rotate(3.37892 479.892 241.104)" fill="#7394C5"/>
</g>
<g filter="url(#filter4_d_52_2560)">
<circle cx="316.992" cy="158.992" r="5.66819" transform="rotate(3.37892 316.992 158.992)" fill="#7394C5"/>
</g>
<g filter="url(#filter5_d_52_2560)">
<circle cx="366.335" cy="66.3356" r="10.7223" transform="rotate(3.37892 366.335 66.3356)" fill="#7394C5"/>
</g>
<g filter="url(#filter6_d_52_2560)">
<circle cx="16.5" cy="16.5" r="16.5" transform="matrix(-0.986432 -0.164172 -0.164172 0.986432 451.68 518.777)" fill="#BBCCE5"/>
</g>
<g filter="url(#filter7_d_52_2560)">
<circle cx="3.5" cy="3.5" r="3.5" transform="matrix(-0.986432 -0.164172 -0.164172 0.986432 404.656 496.758)" fill="#BBCCE5"/>
</g>
<g filter="url(#filter8_d_52_2560)">
<circle cx="8" cy="8" r="8" transform="matrix(-0.986432 -0.164172 -0.164172 0.986432 490.41 489.627)" fill="#BBCCE5"/>
</g>
<g clip-path="url(#clip1_52_2560)">
<path d="M293.251 313.28V302.937H285.957V313.28H278.279V287.651H285.957V296.757H293.251V287.651H300.928V313.28H293.251Z" fill="#023F98"/>
<path d="M322.502 313.28L321.228 309.084H313.243L311.846 313.28H304.168L313.688 287.651H321.228L330.625 313.28H322.502ZM317.681 297.538C317.527 297.05 317.466 296.595 317.358 296.123C317.266 296.514 317.159 296.904 317.02 297.343L314.717 304.547H319.784L317.681 297.538Z" fill="#023F98"/>
<path d="M352.692 313.28L341.329 300.66V313.28H333.789V287.651H339.931L350.327 299.717V287.651H357.866V313.28H352.692Z" fill="#023F98"/>
<path d="M368.354 302.905C367.529 302.563 366.737 302.138 365.989 301.636C364.959 300.995 364.108 300.077 363.523 298.974C362.938 297.871 362.639 296.624 362.657 295.359C362.652 293.28 363.418 291.283 364.791 289.797C365.752 288.842 366.886 288.102 368.123 287.621C369.36 287.141 370.677 286.929 371.993 287C374.286 287.016 376.546 287.572 378.611 288.626V294.952C378.258 294.66 377.92 294.367 377.567 294.107C376.192 293.164 374.598 292.641 372.96 292.594C372.562 292.587 372.164 292.636 371.778 292.741C371.343 292.847 370.955 293.106 370.677 293.474C370.398 293.843 370.245 294.301 370.243 294.774C370.243 296.302 371.778 296.806 372.884 297.245L374.742 298.042C375.799 298.425 376.765 299.045 377.576 299.859C378.387 300.672 379.023 301.661 379.44 302.758C379.726 303.627 379.877 304.539 379.886 305.458C379.874 306.838 379.53 308.193 378.888 309.394C376.584 313.801 371.578 313.947 370.381 313.947C368.395 313.902 366.424 313.585 364.515 313.004C363.901 312.809 363.317 312.565 362.703 312.304V305.621C363.003 305.898 363.321 306.154 363.655 306.385C365.365 307.475 367.298 308.111 369.291 308.239C369.506 308.239 371.317 308.239 371.993 306.938C372.138 306.636 372.211 306.301 372.208 305.962C372.216 305.673 372.169 305.386 372.07 305.116C371.655 304.141 370.534 303.783 369.705 303.49L368.354 302.905Z" fill="#023F98"/>
<path d="M407.125 302.823C407.125 306.938 406.311 308.938 405.067 310.45C403.285 312.42 400.854 313.585 398.28 313.703C397.295 313.871 396.298 313.947 395.301 313.931C392.447 314.02 389.628 313.241 387.178 311.686C385.999 310.819 385.074 309.619 384.506 308.222C383.962 306.769 383.691 305.216 383.708 303.653V287.651H391.385V301.734C391.299 303.019 391.413 304.31 391.723 305.555C391.992 306.38 392.516 307.083 393.21 307.553C393.904 308.022 394.728 308.229 395.547 308.141C396.381 308.222 397.216 307.985 397.9 307.472C398.584 306.96 399.073 306.205 399.278 305.344C399.445 304.637 399.512 303.909 399.478 303.181V287.651H407.155L407.125 302.823Z" fill="#023F98"/>
<path d="M430.758 313.28L419.41 300.66V313.28H411.855V287.651H418.074L428.455 299.717V287.651H435.994V313.28H430.758Z" fill="#023F98"/>
<path d="M463.127 295.017L462.666 294.692C462.396 294.505 462.113 294.337 461.822 294.188C460.097 293.227 458.181 292.714 456.233 292.692C454.881 292.703 453.543 292.979 452.286 293.505C451.67 293.745 451.098 294.097 450.597 294.546C449.725 295.257 449.024 296.178 448.555 297.233C448.085 298.288 447.858 299.446 447.895 300.612C447.89 301.721 448.072 302.822 448.432 303.864C448.955 305.289 449.886 306.505 451.096 307.339C452.305 308.173 453.731 308.585 455.173 308.515C456.114 308.534 457.05 308.375 457.937 308.044V303.978H452.655L455.434 298.563H465.031V311.394C461.561 313.003 457.825 313.871 454.037 313.947C452.317 313.947 444.824 313.752 441.476 307.149C440.512 305.134 440.022 302.903 440.048 300.644C440.008 298.749 440.359 296.868 441.077 295.131C442.612 291.619 446.421 287 454.897 287C457.134 287.03 459.363 287.308 461.546 287.829C462.068 287.943 462.574 288.122 463.081 288.268L463.127 295.017Z" fill="#023F98"/>
<path d="M295.692 337.414C295.789 339.161 295.376 340.899 294.51 342.39C292.344 345.87 288.106 346 287.108 346C284.947 346.043 282.837 345.309 281.12 343.918C280.367 343.295 279.771 342.485 279.385 341.56C278.843 340.114 278.597 338.562 278.663 337.007V323.477H281.411V335.787C281.387 336.873 281.429 337.959 281.534 339.04C281.603 339.763 281.823 340.462 282.179 341.083C282.535 341.705 283.018 342.235 283.592 342.634C284.891 343.536 286.453 343.912 287.993 343.694C289.532 343.476 290.946 342.678 291.976 341.447C292.872 339.722 293.227 337.74 292.989 335.787V323.363L295.692 323.477V337.414Z" fill="#023F98"/>
<path d="M305.397 327.38L305.535 345.431H302.863V323.477H305.765L318.418 338.845L318.173 323.477H320.844V345.805L305.397 327.38Z" fill="#023F98"/>
<path d="M328.123 345.431V323.477H330.795V345.431H328.123Z" fill="#023F98"/>
<path d="M344.277 345.431L336.123 323.477H339.102L345.72 342.195L352.553 323.477H355.118L346.887 345.431H344.277Z" fill="#023F98"/>
<path d="M360.369 345.431V323.477H371.978V325.639H363.056V332.746H370.826V334.974H363.056V343.203H373.237L371.978 345.431H360.369Z" fill="#023F98"/>
<path d="M390.495 345.431L384.937 335.787C383.974 335.907 383.004 335.961 382.035 335.95H381.144V345.496H378.441V323.477H384.031C384.986 323.422 385.944 323.521 386.871 323.769C388.07 324.056 389.137 324.776 389.888 325.806C390.639 326.836 391.028 328.112 390.987 329.412C390.983 330.582 390.663 331.726 390.065 332.709C389.466 333.692 388.614 334.472 387.609 334.958L393.751 345.431H390.495ZM382.418 333.575C382.864 333.575 385.658 334.015 387.179 332.144C387.785 331.427 388.105 330.488 388.069 329.526C388.081 328.71 387.856 327.909 387.424 327.233C386.334 325.607 384.568 325.607 382.925 325.607H381.067V335.511L382.418 333.575Z" fill="#023F98"/>
<path d="M403.057 334.974L401.936 334.421C400.904 333.959 400.015 333.198 399.371 332.226C398.728 331.254 398.355 330.11 398.297 328.924C398.288 327.924 398.538 326.94 399.019 326.079C399.688 325.019 400.606 324.162 401.683 323.591C402.76 323.021 403.959 322.757 405.161 322.826C406.793 322.841 408.406 323.2 409.906 323.883V326.843C408.567 325.67 406.883 325.032 405.145 325.038C404.468 325.009 403.795 325.152 403.18 325.454C402.566 325.757 402.029 326.211 401.614 326.778C401.261 327.305 401.073 327.937 401.076 328.583C401.076 330.941 403.195 331.966 404.9 332.714L406.312 333.348C408.107 334.006 409.599 335.36 410.489 337.137C410.85 337.876 411.04 338.696 411.042 339.528C411.042 340.837 410.65 342.113 409.921 343.17C409.131 344.119 408.149 344.866 407.048 345.356C405.947 345.846 404.756 346.066 403.564 346C401.714 345.971 399.888 345.556 398.189 344.78V341.788C398.481 342.016 398.804 342.227 399.111 342.422C400.462 343.239 401.979 343.696 403.533 343.756C404.296 343.787 405.055 343.625 405.747 343.283C406.439 342.94 407.043 342.428 407.51 341.788C407.886 341.166 408.088 340.445 408.094 339.706C408.091 338.963 407.877 338.238 407.479 337.625C406.643 336.668 405.584 335.962 404.408 335.576L403.057 334.974Z" fill="#023F98"/>
<path d="M417.338 345.431V323.477H420.01V345.431H417.338Z" fill="#023F98"/>
<path d="M431.909 345.431V325.672H425.291V323.477H441.23V325.672H434.581V345.431H431.909Z" fill="#023F98"/>
<path d="M452.331 345.431V336.974L444.484 323.477H447.555L453.851 334.454L460.085 323.477H462.88L455.08 336.974V345.431H452.331Z" fill="#023F98"/>
<path d="M204.588 323.281L201.947 322.045C200.246 321.275 198.629 320.31 197.126 319.167C196.801 318.929 196.489 318.674 196.189 318.403C194.313 316.783 192.812 314.731 191.801 312.403C190.79 310.074 190.295 307.532 190.354 304.97C190.319 300.359 191.856 295.889 194.684 292.383C195.159 291.803 195.672 291.26 196.22 290.757C197.626 289.423 199.242 288.36 200.995 287.618H196.189H180.496V308.255H165.632V287.537H150V345.545H165.632V322.127H180.496V345.545H190.277L190.354 331.039C190.968 331.657 191.619 332.233 192.304 332.762C193.502 333.572 194.813 334.176 196.189 334.551C198.524 335.275 201 335.326 203.36 334.698C203.774 334.584 207.583 333.787 209.272 331.185C209.568 330.486 209.705 329.723 209.671 328.957C209.684 328.317 209.595 327.68 209.41 327.071C208.565 324.859 206.339 324.029 204.588 323.281Z" fill="#023F98"/>
<path d="M251.1 287.634V320.923C251.166 322.562 251.027 324.203 250.685 325.802C250.422 327.058 249.898 328.236 249.15 329.25C248.447 330.224 247.526 330.997 246.469 331.497C245.412 331.997 244.253 332.208 243.1 332.112C241.368 332.268 239.639 331.78 238.209 330.733C236.78 329.685 235.74 328.143 235.268 326.371C234.624 323.547 234.391 320.635 234.577 317.736V287.634H222.8V302.807C222.17 302.14 221.402 301.49 220.635 300.904C219.605 300.174 218.49 299.589 217.318 299.164C215.259 298.333 213.036 298.065 210.853 298.384C210.146 298.546 209.453 298.769 208.78 299.05C207.852 299.341 207.04 299.947 206.47 300.777C205.901 301.606 205.606 302.611 205.632 303.636C205.632 307.1 208.842 308.255 211.007 309.231L214.784 311.036C215.675 311.507 216.55 312.012 217.379 312.548C220.687 314.592 223.164 317.859 224.335 321.72C224.915 323.696 225.22 325.75 225.241 327.819C225.214 330.707 224.607 333.557 223.46 336.178L222.385 338.324C220.465 341.571 217.597 344.066 214.216 345.431H214.078H237.418H243.1C244.962 345.434 246.821 345.27 248.658 344.943C253.894 344.211 258.839 342.471 262.478 337.544C264.981 334.063 266.701 329.542 266.701 320.24V287.634H251.1Z" fill="#023F98"/>
</g>
</g>
</g>
<defs>
<filter id="filter0_d_52_2560" x="0" y="0" width="636" height="676" filterUnits="userSpaceOnUse" color-interpolation-filters="sRGB">
<feFlood flood-opacity="0" result="BackgroundImageFix"/>
<feColorMatrix in="SourceAlpha" type="matrix" values="0 0 0 0 0 0 0 0 0 0 0 0 0 0 0 0 0 0 127 0" result="hardAlpha"/>
<feOffset dx="10" dy="10"/>
<feGaussianBlur stdDeviation="15"/>
<feComposite in2="hardAlpha" operator="out"/>
<feColorMatrix type="matrix" values="0 0 0 0 0.917647 0 0 0 0 0.929412 0 0 0 0 0.929412 0 0 0 1 0"/>
<feBlend mode="normal" in2="BackgroundImageFix" result="effect1_dropShadow_52_2560"/>
<feBlend mode="normal" in="SourceGraphic" in2="effect1_dropShadow_52_2560" result="shape"/>
</filter>
<filter id="filter1_d_52_2560" x="69" y="72" width="118" height="118" filterUnits="userSpaceOnUse" color-interpolation-filters="sRGB">
<feFlood flood-opacity="0" result="BackgroundImageFix"/>
<feColorMatrix in="SourceAlpha" type="matrix" values="0 0 0 0 0 0 0 0 0 0 0 0 0 0 0 0 0 0 127 0" result="hardAlpha"/>
<feOffset dy="4"/>
<feGaussianBlur stdDeviation="5"/>
<feComposite in2="hardAlpha" operator="out"/>
<feColorMatrix type="matrix" values="0 0 0 0 0.207843 0 0 0 0 0.415686 0 0 0 0 0.721569 0 0 0 0.25 0"/>
<feBlend mode="normal" in2="BackgroundImageFix" result="effect1_dropShadow_52_2560"/>
<feBlend mode="normal" in="SourceGraphic" in2="effect1_dropShadow_52_2560" result="shape"/>
</filter>
<filter id="filter2_d_52_2560" x="394.086" y="196.086" width="58.002" height="58.0012" filterUnits="userSpaceOnUse" color-interpolation-filters="sRGB">
<feFlood flood-opacity="0" result="BackgroundImageFix"/>
<feColorMatrix in="SourceAlpha" type="matrix" values="0 0 0 0 0 0 0 0 0 0 0 0 0 0 0 0 0 0 127 0" result="hardAlpha"/>
<feOffset dy="4"/>
<feGaussianBlur stdDeviation="5"/>
<feComposite in2="hardAlpha" operator="out"/>
<feColorMatrix type="matrix" values="0 0 0 0 0.207843 0 0 0 0 0.415686 0 0 0 0 0.721569 0 0 0 0.25 0"/>
<feBlend mode="normal" in2="BackgroundImageFix" result="effect1_dropShadow_52_2560"/>
<feBlend mode="normal" in="SourceGraphic" in2="effect1_dropShadow_52_2560" result="shape"/>
</filter>
<filter id="filter3_d_52_2560" x="460.393" y="225.604" width="39" height="39.0006" filterUnits="userSpaceOnUse" color-interpolation-filters="sRGB">
<feFlood flood-opacity="0" result="BackgroundImageFix"/>
<feColorMatrix in="SourceAlpha" type="matrix" values="0 0 0 0 0 0 0 0 0 0 0 0 0 0 0 0 0 0 127 0" result="hardAlpha"/>
<feOffset dy="4"/>
<feGaussianBlur stdDeviation="5"/>
<feComposite in2="hardAlpha" operator="out"/>
<feColorMatrix type="matrix" values="0 0 0 0 0.207843 0 0 0 0 0.415686 0 0 0 0 0.721569 0 0 0 0.25 0"/>
<feBlend mode="normal" in2="BackgroundImageFix" result="effect1_dropShadow_52_2560"/>
<feBlend mode="normal" in="SourceGraphic" in2="effect1_dropShadow_52_2560" result="shape"/>
</filter>
<filter id="filter4_d_52_2560" x="301.324" y="147.324" width="31.3359" height="31.3367" filterUnits="userSpaceOnUse" color-interpolation-filters="sRGB">
<feFlood flood-opacity="0" result="BackgroundImageFix"/>
<feColorMatrix in="SourceAlpha" type="matrix" values="0 0 0 0 0 0 0 0 0 0 0 0 0 0 0 0 0 0 127 0" result="hardAlpha"/>
<feOffset dy="4"/>
<feGaussianBlur stdDeviation="5"/>
<feComposite in2="hardAlpha" operator="out"/>
<feColorMatrix type="matrix" values="0 0 0 0 0.207843 0 0 0 0 0.415686 0 0 0 0 0.721569 0 0 0 0.25 0"/>
<feBlend mode="normal" in2="BackgroundImageFix" result="effect1_dropShadow_52_2560"/>
<feBlend mode="normal" in="SourceGraphic" in2="effect1_dropShadow_52_2560" result="shape"/>
</filter>
<filter id="filter5_d_52_2560" x="345.613" y="49.613" width="41.4453" height="41.4451" filterUnits="userSpaceOnUse" color-interpolation-filters="sRGB">
<feFlood flood-opacity="0" result="BackgroundImageFix"/>
<feColorMatrix in="SourceAlpha" type="matrix" values="0 0 0 0 0 0 0 0 0 0 0 0 0 0 0 0 0 0 127 0" result="hardAlpha"/>
<feOffset dy="4"/>
<feGaussianBlur stdDeviation="5"/>
<feComposite in2="hardAlpha" operator="out"/>
<feColorMatrix type="matrix" values="0 0 0 0 0.207843 0 0 0 0 0.415686 0 0 0 0 0.721569 0 0 0 0.25 0"/>
<feBlend mode="normal" in2="BackgroundImageFix" result="effect1_dropShadow_52_2560"/>
<feBlend mode="normal" in="SourceGraphic" in2="effect1_dropShadow_52_2560" result="shape"/>
</filter>
<filter id="filter6_d_52_2560" x="406.191" y="509.842" width="53.0059" height="53.0052" filterUnits="userSpaceOnUse" color-interpolation-filters="sRGB">
<feFlood flood-opacity="0" result="BackgroundImageFix"/>
<feColorMatrix in="SourceAlpha" type="matrix" values="0 0 0 0 0 0 0 0 0 0 0 0 0 0 0 0 0 0 127 0" result="hardAlpha"/>
<feOffset dy="4"/>
<feGaussianBlur stdDeviation="5"/>
<feComposite in2="hardAlpha" operator="out"/>
<feColorMatrix type="matrix" values="0 0 0 0 0.207843 0 0 0 0 0.415686 0 0 0 0 0.721569 0 0 0 0.25 0"/>
<feBlend mode="normal" in2="BackgroundImageFix" result="effect1_dropShadow_52_2560"/>
<feBlend mode="normal" in="SourceGraphic" in2="effect1_dropShadow_52_2560" result="shape"/>
</filter>
<filter id="filter7_d_52_2560" x="387.129" y="490.136" width="27" height="27.0011" filterUnits="userSpaceOnUse" color-interpolation-filters="sRGB">
<feFlood flood-opacity="0" result="BackgroundImageFix"/>
<feColorMatrix in="SourceAlpha" type="matrix" values="0 0 0 0 0 0 0 0 0 0 0 0 0 0 0 0 0 0 127 0" result="hardAlpha"/>
<feOffset dy="4"/>
<feGaussianBlur stdDeviation="5"/>
<feComposite in2="hardAlpha" operator="out"/>
<feColorMatrix type="matrix" values="0 0 0 0 0.207843 0 0 0 0 0.415686 0 0 0 0 0.721569 0 0 0 0.25 0"/>
<feBlend mode="normal" in2="BackgroundImageFix" result="effect1_dropShadow_52_2560"/>
<feBlend mode="normal" in="SourceGraphic" in2="effect1_dropShadow_52_2560" result="shape"/>
</filter>
<filter id="filter8_d_52_2560" x="463.203" y="482.203" width="36.0039" height="36.0026" filterUnits="userSpaceOnUse" color-interpolation-filters="sRGB">
<feFlood flood-opacity="0" result="BackgroundImageFix"/>
<feColorMatrix in="SourceAlpha" type="matrix" values="0 0 0 0 0 0 0 0 0 0 0 0 0 0 0 0 0 0 127 0" result="hardAlpha"/>
<feOffset dy="4"/>
<feGaussianBlur stdDeviation="5"/>
<feComposite in2="hardAlpha" operator="out"/>
<feColorMatrix type="matrix" values="0 0 0 0 0.207843 0 0 0 0 0.415686 0 0 0 0 0.721569 0 0 0 0.25 0"/>
<feBlend mode="normal" in2="BackgroundImageFix" result="effect1_dropShadow_52_2560"/>
<feBlend mode="normal" in="SourceGraphic" in2="effect1_dropShadow_52_2560" result="shape"/>
</filter>
<linearGradient id="paint0_linear_52_2560" x1="446.257" y1="-214.403" x2="369.068" y2="641.556" gradientUnits="userSpaceOnUse">
<stop offset="0.152326" stop-color="#1F57D1" stop-opacity="0.5"/>
<stop offset="0.392545" stop-color="#AABDE8" stop-opacity="0.7"/>
<stop offset="0.887171" stop-color="#F5F5F5"/>
</linearGradient>
<linearGradient id="paint1_linear_52_2560" x1="790.855" y1="-109.059" x2="-32.0372" y2="434.459" gradientUnits="userSpaceOnUse">
<stop stop-color="#526E95"/>
<stop offset="0.257975" stop-color="#6D8AB4"/>
<stop offset="1" stop-color="#C9D6EA"/>
</linearGradient>
<clipPath id="clip0_52_2560">
<path d="M20 20H546C573.614 20 596 42.3858 596 70V586C596 613.614 573.614 636 546 636H20V20Z" fill="white"/>
</clipPath>
<clipPath id="clip1_52_2560">
<rect width="315" height="59" fill="white" transform="translate(150 287)"/>
</clipPath>
</defs>
</svg>
