<svg width="26" height="33" viewBox="0 0 26 33" fill="none" xmlns="http://www.w3.org/2000/svg">
<g clip-path="url(#clip0_425_2531)">
<path d="M0 25.7041C0 26.6959 0.80406 27.5 1.79592 27.5H24.2041C25.1959 27.5 26 26.6959 26 25.7041C26 24.7122 25.1959 23.9082 24.2041 23.9082H1.79592C0.804059 23.9082 0 24.7122 0 25.7041ZM0 16.5C0 17.4919 0.80406 18.2959 1.79592 18.2959H24.2041C25.1959 18.2959 26 17.4919 26 16.5C26 15.5081 25.1959 14.7041 24.2041 14.7041H1.79592C0.804059 14.7041 0 15.5081 0 16.5ZM1.79592 5.5C0.804059 5.5 0 6.30406 0 7.29592C0 8.28778 0.80406 9.09184 1.79592 9.09184H24.2041C25.1959 9.09184 26 8.28778 26 7.29592C26 6.30406 25.1959 5.5 24.2041 5.5H1.79592Z" fill="#767676"/>
</g>
<defs>
<clipPath id="clip0_425_2531">
<rect width="26" height="32" fill="white" transform="translate(0 0.5)"/>
</clipPath>
</defs>
</svg>
