<svg width="16" height="11" viewBox="0 0 16 11" fill="none" xmlns="http://www.w3.org/2000/svg">
<path d="M8 0C4.36364 0 1.25818 2.15627 0 5.2C1.25818 8.24373 4.36364 10.4 8 10.4C11.6364 10.4 14.7418 8.24373 16 5.2C14.7418 2.15627 11.6364 0 8 0ZM8 8.66667C5.99273 8.66667 4.36364 7.1136 4.36364 5.2C4.36364 3.2864 5.99273 1.73333 8 1.73333C10.0073 1.73333 11.6364 3.2864 11.6364 5.2C11.6364 7.1136 10.0073 8.66667 8 8.66667ZM8 3.12C6.79273 3.12 5.81818 4.04907 5.81818 5.2C5.81818 6.35093 6.79273 7.28 8 7.28C9.20727 7.28 10.1818 6.35093 10.1818 5.2C10.1818 4.04907 9.20727 3.12 8 3.12Z" fill="#060606"/>
</svg>
